<?xml version="1.0" encoding="UTF-8" standalone="no"?>
<!-- Created with Inkscape (http://www.inkscape.org/) -->

<svg
   xmlns:dc="http://purl.org/dc/elements/1.1/"
   xmlns:cc="http://creativecommons.org/ns#"
   xmlns:rdf="http://www.w3.org/1999/02/22-rdf-syntax-ns#"
   xmlns:svg="http://www.w3.org/2000/svg"
   xmlns="http://www.w3.org/2000/svg"
   xmlns:sodipodi="http://sodipodi.sourceforge.net/DTD/sodipodi-0.dtd"
   xmlns:inkscape="http://www.inkscape.org/namespaces/inkscape"
   width="48"
   height="48"
   viewBox="0 0 48 48.000001"
   id="svg4741"
   version="1.1"
   inkscape:version="0.92.2 2405546, 2018-03-11"
   sodipodi:docname="ic_launcher.svg">
  <defs
     id="defs4743">
    <filter
       inkscape:collect="always"
       style="color-interpolation-filters:sRGB"
       id="filter4347"
       x="-0.052117702"
       width="1.1042354"
       y="-0.044485316"
       height="1.0889705">
      <feGaussianBlur
         inkscape:collect="always"
         stdDeviation="0.59314264"
         id="feGaussianBlur4349" />
    </filter>
    <filter
       inkscape:collect="always"
       style="color-interpolation-filters:sRGB"
       id="filter4281-3"
       x="-0.047999956"
       width="1.096"
       y="-0.048000045"
       height="1.0960001">
      <feGaussianBlur
         inkscape:collect="always"
         stdDeviation="0.64000197"
         id="feGaussianBlur4283-6" />
    </filter>
  </defs>
  <sodipodi:namedview
     id="base"
     pagecolor="#ffffff"
     bordercolor="#666666"
     borderopacity="1.0"
     inkscape:pageopacity="0.0"
     inkscape:pageshadow="2"
     inkscape:zoom="3.959798"
     inkscape:cx="-68.821051"
     inkscape:cy="11.155239"
     inkscape:document-units="px"
     inkscape:current-layer="layer1"
     showgrid="false"
     units="px"
     inkscape:window-width="1918"
     inkscape:window-height="692"
     inkscape:window-x="1920"
     inkscape:window-y="20"
     inkscape:window-maximized="0" />
  <metadata
     id="metadata4746">
    <rdf:RDF>
      <cc:Work
         rdf:about="">
        <dc:format>image/svg+xml</dc:format>
        <dc:type
           rdf:resource="http://purl.org/dc/dcmitype/StillImage" />
        <dc:title />
      </cc:Work>
    </rdf:RDF>
  </metadata>
  <g
     inkscape:label="Ebene 1"
     inkscape:groupmode="layer"
     id="layer1"
     transform="translate(0,-1004.3622)">
    <g
       id="g4200">
      <ellipse
         ry="21.999985"
         rx="21.999989"
         cy="1028.3622"
         cx="23.999994"
         id="path4137"
         style="fill:#424242;fill-opacity:1;stroke:#000000;stroke-width:0;stroke-miterlimit:4;stroke-dasharray:none;stroke-opacity:0" />
      <path
         inkscape:connector-curvature="0"
         id="path4137-0"
         d="m 24.000005,1006.3622 a 21.999989,21.999494 0 0 0 -22,21.9995 21.999989,21.999494 0 0 0 0.0059,0.1465 21.999989,21.999494 0 0 1 21.994141,-21.896 21.999989,21.999494 0 0 1 21.994141,21.853 21.999989,21.999494 0 0 0 0.0059,-0.1035 21.999989,21.999494 0 0 0 -22,-21.9995 z"
         style="fill:#ffffff;fill-opacity:0.19607843;stroke:#000000;stroke-width:0;stroke-miterlimit:4;stroke-dasharray:none;stroke-opacity:0" />
      <path
         id="path4137-0-3"
         d="m 24.000005,1050.3622 a 21.999989,21.999985 0 0 1 -22,-22 21.999989,21.999985 0 0 1 0.0059,-0.1465 21.999989,21.999985 0 0 0 21.9941,21.8965 21.999989,21.999985 0 0 0 21.994141,-21.8535 21.999989,21.999985 0 0 1 0.0059,0.1035 21.999989,21.999985 0 0 1 -22,22 z"
         style="fill:#000000;fill-opacity:0.19607843;stroke:#000000;stroke-width:0;stroke-miterlimit:4;stroke-dasharray:none;stroke-opacity:0"
         inkscape:connector-curvature="0" />
    </g>
    <path
       style="fill:#000000;fill-opacity:0.08627451;stroke:none;filter:url(#filter4347)"
       d="m 45.481358,959.8636 a 15.999995,15.999992 0 0 0 -11.080078,4.6836 15.999995,15.999992 0 0 0 0,22.6289 15.999995,15.999992 0 0 0 22.626953,0 l -5.65625,-5.6582 a 7.9999967,7.9999952 0 0 1 -11.314453,0 7.9999967,7.9999952 0 0 1 0,-11.3125 7.9999967,7.9999952 0 0 1 11.314453,0 l 5.65625,-5.6582 a 15.999995,15.999992 0 0 0 -11.546875,-4.6836 z"
       id="rect4180-4-3"
       inkscape:connector-curvature="0"
       transform="matrix(0.99999809,0,0,0.99999809,-21.715683,53.501073)" />
    <g
       transform="matrix(0.99999603,0,0,0.99999603,8.9e-5,1.003938)"
       id="g4167-9-7"
       style="fill:#000000;fill-opacity:0.04313725;filter:url(#filter4281-3)">
      <path
         inkscape:connector-curvature="0"
         id="rect4180-4-360-5"
         d="m 35.313795,1017.0485 a 15.999995,15.999992 0 0 0 -22.6275,0 l 5.6569,5.6568 a 7.9999967,7.9999952 0 0 1 11.3137,0 z"
         style="fill:#000000;fill-opacity:0.04313725;stroke:none" />
      <path
         inkscape:connector-curvature="0"
         id="rect4180-1-6-3"
         d="m 29.656853,1034.0191 a 7.9999967,7.9999952 0 0 1 -11.3137,0 l -5.6569,5.6568 a 15.999995,15.999992 0 0 0 22.6275,0 z"
         style="fill:#000000;fill-opacity:0.04313725;stroke:none" />
      <path
         inkscape:connector-curvature="0"
         id="rect4180-3-2-5"
         d="m 12.686293,1017.0485 a 15.999995,15.999992 0 0 0 0,22.6274 l 5.6569,-5.6568 a 7.9999967,7.9999952 0 0 1 0,-11.3138 z"
         style="fill:#000000;fill-opacity:0.04313725;stroke:none" />
      <path
         inkscape:connector-curvature="0"
         id="rect4180-4-36-6-6"
         d="m 35.3138,1039.6762 a 15.999992,15.999995 0 0 0 0,-22.6275 l -5.6568,5.6569 a 7.9999952,7.9999967 0 0 1 0,11.3137 z"
         style="fill:#000000;fill-opacity:0.04313725;stroke:none" />
    </g>
    <path
       style="fill:#cddc39;fill-opacity:1;stroke:none;stroke-width:0.99999607"
       d="m 18.343177,1022.7053 a 7.9999636,7.9999649 0 0 0 0,11.3137 l -5.656733,5.6569 a 15.999928,15.999932 0 0 1 0,-22.6274 z"
       id="rect4180-1-2"
       inkscape:connector-curvature="0" />
    <path
       style="fill:#8bc34a;fill-opacity:1;stroke:none;stroke-width:0.99999607"
       d="m 35.313731,1039.6759 a 15.999928,15.999932 0 0 1 -22.627287,0 l 5.656733,-5.657 a 7.9999636,7.9999649 0 0 0 11.313781,0 z"
       id="rect4180-3-9"
       inkscape:connector-curvature="0" />
    <path
       style="fill:#e1f5fe;fill-opacity:1;stroke:none;stroke-width:0.99999607"
       d="m 12.68611,1017.0485 a 15.999932,15.999928 0 0 1 22.627428,0 l -5.656874,5.6567 a 7.9999649,7.9999636 0 0 0 -11.313687,0 z"
       id="rect4180-4-36-1"
       inkscape:connector-curvature="0" />
    <path
       style="fill:#000000;fill-opacity:0.19607843;stroke:none;stroke-width:0.99999607"
       d="m 24.119329,1020.1107 a 7.9999649,7.9999636 0 0 0 -5.773416,2.3438 7.9999649,7.9999636 0 0 0 -2.335928,5.7011 7.9999649,7.9999636 0 0 1 2.335928,-5.4512 7.9999649,7.9999636 0 0 1 5.773416,-2.3437 7.9999649,7.9999636 0 0 1 5.53904,2.3437 7.9999636,7.9999649 0 0 1 2.335929,5.6152 7.9999636,7.9999649 0 0 0 -2.335929,-5.8651 7.9999649,7.9999636 0 0 0 -5.53904,-2.3438 z m 15.87689,7.9296 a 15.999928,15.999932 0 0 1 -4.67967,11.3848 15.999932,15.999928 0 0 1 -22.628817,0 15.999932,15.999928 0 0 1 -4.679668,-10.9941 15.999932,15.999928 0 0 0 4.679668,11.2441 15.999932,15.999928 0 0 0 22.628817,0 15.999928,15.999932 0 0 0 4.67967,-11.6348 z"
       id="rect4180-4-5-2"
       inkscape:connector-curvature="0" />
    <path
       style="fill:#ffffff;fill-opacity:0.19607843;stroke:none;stroke-width:0.99999607"
       d="m 24.119329,1036.6133 a 7.9999649,7.9999636 0 0 1 -5.773416,-2.3438 7.9999649,7.9999636 0 0 1 -2.335928,-5.7012 7.9999649,7.9999636 0 0 0 2.335928,5.4512 7.9999649,7.9999636 0 0 0 5.773416,2.3438 7.9999649,7.9999636 0 0 0 5.53904,-2.3438 7.9999636,7.9999649 0 0 0 2.335929,-5.6152 7.9999636,7.9999649 0 0 1 -2.335929,5.8652 7.9999649,7.9999636 0 0 1 -5.53904,2.3438 z m 15.87689,-7.9297 a 15.999928,15.999932 0 0 0 -4.67967,-11.3847 15.999932,15.999928 0 0 0 -22.628817,0 15.999932,15.999928 0 0 0 -4.679668,10.994 15.999932,15.999928 0 0 1 4.679668,-11.244 15.999932,15.999928 0 0 1 22.628817,0 15.999928,15.999932 0 0 1 4.67967,11.6347 z"
       id="rect4180-4-5-0-7"
       inkscape:connector-curvature="0" />
  </g>
</svg>
